PathFileType	4	(X/Y/Z)	c:/Users/goper/Files/vsCode/490R/osim_files/C17/C17_SSWS_01.trc
DataRate	CameraRate	NumFrames	NumMarkers	Units                	OrigDataRate	OrigDataStartFrame	OrigNumFrames
250.00	250.00	9	36	mm	250.0	1112	2223
                Frame#	Time	LPSIS			LASIS			LTH1			LTH2			LTH3			LTH4			LLFE			LMFE			LSH1			LSH2			LSH3			LSH4			LLMAL			LMMAL			LCAL			LMTP5			LTOE			LMTP1			RPSIS			RASIS			RTH1			RTH2			RTH3			RTH4			RLFE			RMFE			RSH1			RSH2			RSH3			RSH4			RLMAL			RMMAL			RCAL			RMTP1			RTOE			RMTP5		
		X1	Y1	Z1	X2	Y2	Z2	X3	Y3	Z3	X4	Y4	Z4	X5	Y5	Z5	X6	Y6	Z6	X7	Y7	Z7	X8	Y8	Z8	X9	Y9	Z9	X10	Y10	Z10	X11	Y11	Z11	X12	Y12	Z12	X13	Y13	Z13	X14	Y14	Z14	X15	Y15	Z15	X16	Y16	Z16	X17	Y17	Z17	X18	Y18	Z18	X19	Y19	Z19	X20	Y20	Z20	X21	Y21	Z21	X22	Y22	Z22	X23	Y23	Z23	X24	Y24	Z24	X25	Y25	Z25	X26	Y26	Z26	X27	Y27	Z27	X28	Y28	Z28	X29	Y29	Z29	X30	Y30	Z30	X31	Y31	Z31	X32	Y32	Z32	X33	Y33	Z33	X34	Y34	Z34	X35	Y35	Z35	X36	Y36	Z36

1112	4.44400	-1722.91675	1103.50171	253.53319	-1921.21021	1048.66516	347.10446	-1835.18140	717.91406	374.12286	-1844.68445	675.84070	363.93686	-1895.12805	728.47382	372.88599	-1898.58325	684.90118	365.90518	-1850.31738	510.91418	326.25931	-1851.71582	517.75262	203.30104	-1772.47791	284.48676	312.73050	-1769.57178	241.82211	304.39877	-1833.38782	275.26514	313.19064	-1822.52942	233.64316	304.90274	-1773.20789	101.32079	276.56396	-1786.35193	110.72591	189.05972	-1696.97095	63.59849	230.58580	-1888.28662	47.64861	297.89569	-1947.31177	65.30682	230.65623	-1930.72070	47.87248	182.44791	-1725.99500	1096.93909	179.53891	-1901.68884	1060.09119	77.83791	-1908.01501	766.26556	15.66129	-1922.03491	721.28320	21.62021	-1966.58936	779.76831	24.37628	-1974.39587	732.43146	26.11316	-1986.39673	512.13379	38.02702	-1985.09729	527.22961	164.33128	-1828.23608	371.88409	34.20773	-1814.89917	329.36032	46.58886	-1885.50208	344.90045	39.74074	-1861.79919	305.11337	48.46922	-1736.08899	173.51065	77.63000	-1778.66113	174.18256	161.71512	-1664.26208	162.41402	134.41545	-1879.45056	64.00476	142.86685	-1894.59753	84.94791	96.76049	-1825.22083	75.52998	37.01632
1113	4.44800	-1728.03027	1103.77734	253.28424	-1927.13599	1049.15234	347.59790	-1837.74744	718.60437	374.17905	-1846.64124	676.53955	363.96487	-1897.72241	728.47266	372.66666	-1900.70166	685.05542	365.81903	-1850.75073	511.25821	326.39493	-1852.20105	518.16937	203.41905	-1772.59082	284.75739	312.81616	-1769.69800	242.10762	304.40839	-1833.50574	275.49887	313.32971	-1822.63806	233.90500	305.04156	-1773.34863	101.53968	276.57617	-1789.04260	111.35815	190.19473	-1697.05505	63.84859	230.62794	-1888.29968	47.66341	297.91479	-1947.34302	65.28577	230.68863	-1930.75464	47.85442	182.45027	-1731.27869	1097.25281	179.28773	-1907.03625	1060.52161	78.18462	-1914.84851	767.09003	15.32743	-1929.27258	722.22510	21.32562	-1973.44666	781.02686	24.24086	-1981.49268	733.67706	25.91945	-1995.21912	513.45001	38.30373	-1993.63464	528.38879	164.58878	-1839.55066	369.88681	34.28119	-1828.02185	326.92496	46.54656	-1898.27185	343.90329	39.77478	-1874.64343	303.46509	49.40927	-1752.86194	169.04817	77.31492	-1795.22107	170.94888	161.53336	-1681.62451	156.05243	133.99423	-1897.40771	62.17696	142.89079	-1913.26257	84.55019	96.91390	-1844.40881	73.19716	37.08237
1114	4.45200	-1733.46216	1103.57751	253.37486	-1928.11218	1047.84204	347.00940	-1840.16028	719.27521	374.19461	-1848.80212	677.11261	364.09674	-1900.23413	729.28735	374.38852	-1902.92517	685.12115	365.63461	-1851.19214	511.59555	326.51346	-1852.68860	518.56561	203.53459	-1772.13306	285.52063	312.25806	-1769.77344	242.38974	304.44116	-1833.57983	275.71265	313.45560	-1822.72791	234.13257	305.17148	-1773.47913	101.77382	276.59674	-1790.08191	112.18381	189.89116	-1697.12012	64.08709	230.63782	-1888.30078	47.65262	297.93475	-1947.36658	65.24689	230.69635	-1930.80493	47.86745	182.47224	-1736.48499	1097.49585	179.05087	-1912.26917	1060.89307	78.56477	-1921.19092	767.98431	14.69314	-1935.81482	723.30334	20.91198	-1980.13074	782.07507	24.11411	-1988.53918	734.83813	25.85279	-2004.28418	514.84326	38.78546	-2002.18274	529.54614	164.94345	-1852.49902	367.43997	34.14169	-1841.28687	324.48544	46.39545	-1910.88367	342.99908	39.79215	-1888.23840	301.99509	49.45507	-1769.70129	164.70325	77.05358	-1811.95532	167.82440	161.38118	-1699.09509	150.13080	133.29893	-1918.26172	62.77906	143.32132	-1932.06665	84.23932	97.20557	-1863.68140	71.06815	37.22030
1115	4.45600	-1738.52954	1103.77112	253.07719	-1933.07996	1047.86584	347.34891	-1842.45349	719.97797	374.24411	-1850.69141	677.72534	364.04962	-1902.57715	728.64832	372.22729	-1905.07031	685.22784	365.53284	-1851.66174	511.93774	326.58746	-1853.29578	518.88617	203.63301	-1772.81946	285.38538	312.74512	-1769.87817	242.67726	304.47537	-1833.73523	275.93021	313.58829	-1822.83374	234.37941	305.29083	-1773.58618	102.00180	276.58255	-1788.60779	111.55682	189.44380	-1697.17383	64.31264	230.64340	-1888.30945	47.65614	297.98090	-1947.36548	65.18481	230.73996	-1930.82800	47.86555	182.49033	-1741.73657	1097.65320	178.76437	-1917.61572	1061.17944	78.89996	-1926.95557	769.34717	14.15269	-1942.81592	724.18469	20.57058	-1986.92554	783.08344	24.01532	-1995.61475	735.92987	25.77926	-2012.87451	516.14850	38.85257	-2010.24426	530.44543	165.20496	-1864.73108	365.16583	34.11673	-1854.21057	321.78000	46.63529	-1923.69666	342.05841	39.86701	-1901.88306	300.54108	49.49657	-1786.75732	160.38422	76.84806	-1828.90308	164.58810	161.28386	-1715.51501	144.44077	133.02870	-1937.54248	62.25433	143.57423	-1951.18298	84.02922	97.66056	-1883.03894	68.99729	37.36661
1116	4.46000	-1743.70142	1103.90820	252.80998	-1938.08447	1047.86011	347.63211	-1845.01587	720.58405	374.38309	-1852.69836	678.31720	364.05499	-1905.10950	728.84253	372.09995	-1907.26294	685.19446	365.29663	-1852.20593	512.27081	326.57983	-1853.96216	519.23743	203.70247	-1772.97705	285.66986	312.71100	-1769.99561	243.00450	304.44205	-1833.89136	276.14978	313.70868	-1822.95862	234.60635	305.37762	-1773.72290	102.24753	276.55978	-1787.86353	112.54776	190.21939	-1697.24939	64.54735	230.63066	-1888.31433	47.62740	297.98422	-1947.39575	65.16042	230.74895	-1930.84668	47.86964	182.51065	-1747.00842	1097.78687	178.50502	-1922.96765	1061.44568	79.27866	-1933.87036	769.94159	13.88058	-1950.05383	724.81744	20.38202	-1993.73462	784.10254	23.98608	-2002.60059	736.86572	25.74110	-2021.48218	517.26184	38.98956	-2018.34802	531.40619	165.49825	-1876.97095	362.87027	34.10047	-1867.36865	319.23453	46.60889	-1936.42969	341.06873	39.92171	-1915.60278	299.07315	49.59522	-1803.86023	156.17914	76.63493	-1845.70776	161.52187	161.23740	-1731.92310	139.07643	132.55383	-1956.89392	61.90292	143.93864	-1970.03833	83.89937	97.98248	-1902.41223	67.06225	37.53495
1117	4.46400	-1748.45874	1104.39087	252.17093	-1943.10083	1047.83728	347.96375	-1847.31824	721.13123	374.32816	-1854.65198	678.80023	363.99765	-1907.68372	728.89160	371.99634	-1909.32031	685.12006	365.07706	-1852.68982	512.55011	326.57935	-1854.53320	519.60315	203.77573	-1773.18970	286.01312	312.78033	-1770.22595	243.32552	304.45169	-1834.13062	276.40668	313.81607	-1822.94885	234.75235	305.43494	-1773.83521	102.49713	276.54492	-1788.03442	112.73846	190.22630	-1697.68604	64.64969	230.68665	-1888.34009	47.63744	297.99173	-1947.44666	65.10970	230.78326	-1931.91431	48.50557	182.90384	-1751.95581	1098.12646	178.13525	-1928.30908	1061.60876	79.60866	-1946.52002	768.55408	17.39830	-1957.13867	725.54236	20.12720	-2000.41602	784.93848	23.95098	-2009.70544	737.82269	25.80599	-2029.75769	518.35950	39.04808	-2026.26245	532.11475	165.79697	-1889.23804	360.56760	34.04222	-1880.69995	316.73621	46.61915	-1949.14209	340.12766	40.02537	-1929.26062	297.62595	49.76788	-1821.11780	152.08632	76.52909	-1862.52441	158.59331	161.15179	-1750.24231	133.03767	132.22783	-1976.38220	61.64719	144.36763	-1988.92786	83.95661	98.41425	-1921.90613	65.31657	37.81734
1118	4.46800	-1754.16931	1103.60168	251.46367	-1946.94788	1047.29138	348.81519	-1849.75500	721.69153	374.39096	-1856.77466	679.28754	363.96106	-1910.35217	729.75031	373.96057	-1911.59607	685.04596	364.75674	-1853.28687	512.84955	326.60367	-1855.11890	519.91510	203.83289	-1773.16553	286.46637	312.61481	-1770.45972	243.62665	304.47177	-1834.39331	276.67441	313.95404	-1823.59070	235.08463	305.64981	-1773.95679	102.73286	276.48669	-1788.17749	112.92712	190.25029	-1697.75378	64.92002	230.68611	-1888.36292	47.62326	298.01028	-1947.07007	65.14037	231.37927	-1931.91199	48.43898	182.92493	-1757.52600	1097.88049	178.04115	-1933.66016	1061.71069	79.98730	-1953.19299	769.22565	17.06623	-1964.34314	726.11688	19.95562	-2007.20496	785.74384	23.86576	-2016.68994	738.69678	25.83475	-2038.53015	519.20581	39.57867	-2033.97388	532.86987	166.05641	-1901.71875	358.21097	33.79850	-1894.16931	314.31396	46.57248	-1961.94116	339.23965	40.18644	-1943.08240	296.24472	49.91631	-1838.46667	148.12776	76.39912	-1879.47888	155.71162	161.17001	-1767.93604	127.47487	131.89627	-1995.62000	61.43367	144.75716	-2007.60425	84.24651	98.75216	-1941.37915	63.74518	38.09420
1119	4.47200	-1759.17139	1103.60510	250.97835	-1952.28955	1047.13892	348.92932	-1852.09534	722.04297	374.58429	-1858.69897	679.69922	363.84314	-1912.58362	728.93469	371.83121	-1913.69910	685.02020	364.39316	-1853.95996	513.15662	326.60110	-1855.83838	520.20990	203.86913	-1773.51672	286.85336	312.85889	-1770.68640	243.94829	304.46454	-1834.59497	276.89175	314.04922	-1823.56396	235.37010	305.57031	-1774.04480	102.98421	276.45294	-1788.63550	113.06187	190.31531	-1697.85181	65.24129	230.65488	-1888.36743	47.63619	297.99356	-1947.15576	65.07901	231.35706	-1931.91870	48.37915	182.95258	-1762.86011	1097.87500	177.71793	-1939.05688	1061.75562	80.35231	-1960.36853	769.60992	17.07637	-1971.24475	726.69940	19.75079	-2013.70483	786.53705	23.90316	-2024.28516	739.50531	26.29201	-2046.98450	520.24884	39.90630	-2041.67261	533.45221	166.36777	-1913.71338	356.04913	33.82905	-1907.49658	311.80545	46.66266	-1974.74402	338.38171	40.34957	-1957.38489	295.00494	49.42959	-1855.92700	144.32649	76.34184	-1896.56055	152.99696	161.19189	-1785.71533	122.12859	131.61720	-2015.02344	61.41513	145.22661	-2026.78699	84.30382	99.36192	-1960.95825	62.30757	38.44174
1120	4.47600	-1764.36682	1103.52966	250.66093	-1957.58313	1046.98279	348.92203	-1854.57727	722.51843	374.56805	-1860.69763	680.15021	363.75473	-1914.89941	728.75775	371.71436	-1915.38879	685.33038	364.58081	-1854.55078	513.50220	326.59695	-1856.50232	520.52075	203.91994	-1773.77539	287.16812	312.89636	-1770.95068	244.31340	304.47763	-1834.82629	277.13535	314.13779	-1823.74255	235.61656	305.61722	-1774.14429	103.21943	276.42255	-1788.82129	113.27871	190.34280	-1697.92017	65.53829	230.66782	-1888.23328	47.60855	298.00403	-1947.18860	65.05695	231.43025	-1931.36865	48.01743	182.65569	-1768.10388	1097.75903	177.38206	-1944.46265	1061.71033	80.62003	-1967.36218	769.99139	16.99332	-1978.23999	727.25757	19.57243	-2019.77759	787.16852	23.93053	-2030.95581	740.28668	26.12969	-2055.17041	521.12476	40.14458	-2049.20337	533.96887	166.62479	-1926.27856	353.67462	33.78863	-1920.38965	309.19623	47.76515	-1987.50671	337.45813	40.55959	-1971.20764	293.74585	49.66519	-1873.51611	140.67075	76.33775	-1914.07495	150.45757	161.67607	-1804.04199	116.63436	131.52068	-2034.44360	61.52004	145.71466	-2045.71643	84.71859	99.86559	-1980.51355	60.96688	38.80253
